<svg xmlns="http://www.w3.org/2000/svg" xmlns:xlink="http://www.w3.org/1999/xlink" width="500" zoomAndPan="magnify" viewBox="0 0 375 374.999991" height="500" preserveAspectRatio="xMidYMid meet" version="1.0"><defs><g/><clipPath id="f12470790e"><path d="M 106.941406 69.441406 L 268.058594 69.441406 L 268.058594 230.558594 L 106.941406 230.558594 Z M 106.941406 69.441406 " clip-rule="nonzero"/></clipPath><clipPath id="42de13cf43"><path d="M 187.5 69.441406 C 143.007812 69.441406 106.941406 105.507812 106.941406 150 C 106.941406 194.492188 143.007812 230.558594 187.5 230.558594 C 231.992188 230.558594 268.058594 194.492188 268.058594 150 C 268.058594 105.507812 231.992188 69.441406 187.5 69.441406 " clip-rule="nonzero"/></clipPath><clipPath id="7ed0b4aa10"><path d="M 82 95.5 L 293 95.5 L 293 184.5 L 82 184.5 Z M 82 95.5 " clip-rule="nonzero"/></clipPath><clipPath id="18f9e65a5d"><path d="M 174.429688 42.867188 L 292.46875 125.347656 L 200.535156 256.910156 L 82.496094 174.429688 Z M 174.429688 42.867188 " clip-rule="nonzero"/></clipPath><clipPath id="436bdf1fad"><path d="M 160.664062 -3.304688 L 329.726562 114.828125 L 211.164062 284.507812 L 42.097656 166.375 Z M 160.664062 -3.304688 " clip-rule="nonzero"/></clipPath><clipPath id="92ce5c5b08"><path d="M 161.566406 94.1875 L 199.066406 94.1875 L 199.066406 131.6875 L 161.566406 131.6875 Z M 161.566406 94.1875 " clip-rule="nonzero"/></clipPath><clipPath id="74d7063746"><path d="M 187.5 173.980469 L 225 173.980469 L 225 211.480469 L 187.5 211.480469 Z M 187.5 173.980469 " clip-rule="nonzero"/></clipPath></defs><g clip-path="url(#f12470790e)"><g clip-path="url(#42de13cf43)"><path fill="#8bdffa" d="M 106.941406 69.441406 L 268.058594 69.441406 L 268.058594 230.558594 L 106.941406 230.558594 Z M 106.941406 69.441406 " fill-opacity="1" fill-rule="nonzero"/></g></g><g clip-path="url(#7ed0b4aa10)"><g clip-path="url(#18f9e65a5d)"><g clip-path="url(#436bdf1fad)"><path fill="#000000" d="M 190.148438 165.179688 C 188.84375 165.335938 187.207031 165.222656 187.015625 164.964844 C 186.882812 164.777344 187.355469 164.75 188.75 164.859375 C 189.804688 164.941406 190.699219 165.03125 190.742188 165.054688 C 190.78125 165.078125 190.515625 165.136719 190.148438 165.179688 Z M 167.195312 175.84375 C 166.621094 176.378906 165.8125 176.984375 165.402344 177.191406 C 164.382812 177.703125 162.382812 178.027344 159.773438 178.101562 C 154.511719 178.25 152.074219 178.351562 150.773438 178.480469 C 149.605469 178.597656 149.480469 178.582031 149.980469 178.382812 C 150.875 178.027344 152.921875 177.507812 154.988281 177.113281 C 156.003906 176.917969 157.9375 176.464844 159.285156 176.105469 C 160.632812 175.742188 162.796875 175.28125 164.089844 175.074219 C 166.566406 174.683594 167.804688 174.238281 168.820312 173.371094 L 169.433594 172.84375 L 168.835938 173.859375 C 168.445312 174.523438 167.878906 175.210938 167.195312 175.84375 Z M 156.09375 170.976562 C 154.671875 171.148438 152.617188 171.441406 151.53125 171.625 C 149.71875 171.933594 147.496094 172.054688 145.464844 171.957031 L 144.671875 171.917969 L 145.40625 171.730469 C 145.8125 171.625 147.203125 171.464844 148.5 171.375 C 149.796875 171.28125 151.96875 171.054688 153.328125 170.867188 C 154.6875 170.683594 156.449219 170.519531 157.242188 170.507812 C 158.726562 170.488281 158.789062 170.492188 158.71875 170.601562 C 158.695312 170.636719 157.511719 170.804688 156.09375 170.976562 Z M 189.476562 158.550781 C 190.582031 158.242188 192.707031 156.65625 193.347656 155.667969 C 193.714844 155.101562 193.757812 154.894531 193.601562 154.484375 L 193.410156 153.984375 L 195.023438 152.859375 C 195.910156 152.242188 197.390625 151.355469 198.308594 150.890625 C 201 149.535156 202.503906 148.429688 204.714844 146.1875 C 207.035156 143.835938 207.628906 143.351562 208.800781 142.867188 C 209.277344 142.667969 210.222656 142.152344 210.902344 141.71875 C 213.914062 139.800781 214.953125 139.253906 218.339844 137.789062 C 220.320312 136.929688 222.753906 135.753906 223.75 135.167969 C 225.761719 133.988281 226.921875 133.414062 227.074219 133.527344 C 227.132812 133.566406 227.480469 133.914062 227.847656 134.300781 C 228.605469 135.097656 229.109375 135.917969 229.84375 137.550781 C 230.121094 138.175781 230.398438 138.746094 230.464844 138.824219 C 230.527344 138.90625 230.082031 139.285156 229.46875 139.679688 C 228.859375 140.070312 227.632812 140.886719 226.742188 141.492188 C 225.265625 142.496094 224.945312 142.628906 223.121094 143.035156 C 220.296875 143.660156 216.570312 144.851562 215.609375 145.4375 C 215.160156 145.710938 213.742188 146.695312 212.453125 147.628906 C 209.914062 149.472656 208.769531 150.046875 205.085938 151.3125 C 202.652344 152.148438 202.617188 152.171875 200.652344 154.359375 C 198.957031 156.242188 197.503906 157.332031 195.539062 158.183594 C 193.597656 159.023438 192.28125 159.25 190.480469 159.050781 C 189.105469 158.898438 188.796875 158.742188 189.476562 158.550781 Z M 187.40625 157.738281 C 187.355469 157.515625 189.449219 155.980469 190.367188 155.5625 C 191.109375 155.226562 192.230469 154.960938 192.410156 155.078125 C 192.429688 155.089844 192.140625 155.382812 191.765625 155.722656 C 190.761719 156.636719 189.210938 157.511719 188.261719 157.699219 C 187.804688 157.789062 187.417969 157.808594 187.40625 157.738281 Z M 229.933594 132.710938 C 230.757812 132.550781 231.472656 132.894531 231.90625 133.660156 C 232.046875 133.910156 232.214844 134.390625 232.273438 134.734375 L 232.382812 135.351562 L 232.027344 134.953125 C 231.832031 134.730469 231.105469 134.183594 230.414062 133.734375 C 229.722656 133.285156 229.164062 132.902344 229.175781 132.886719 C 229.1875 132.867188 229.527344 132.785156 229.933594 132.710938 Z M 232.367188 137.683594 L 231.871094 137.863281 C 231.414062 138.027344 231.359375 138.007812 231.175781 137.621094 C 231.070312 137.390625 230.667969 136.546875 230.289062 135.746094 L 229.597656 134.289062 L 230.253906 134.855469 C 230.613281 135.164062 231.238281 135.929688 231.636719 136.550781 Z M 184.113281 158.121094 C 182.703125 157.835938 182.050781 157.636719 182.128906 157.511719 C 182.195312 157.40625 182.847656 156.761719 183.574219 156.070312 C 184.300781 155.378906 185.015625 154.636719 185.15625 154.417969 C 185.464844 153.945312 185.601562 154.007812 185.847656 154.726562 C 185.964844 155.078125 185.925781 155.621094 185.738281 156.242188 C 185.378906 157.417969 185.390625 157.652344 185.855469 158.15625 C 186.1875 158.515625 186.050781 158.515625 184.113281 158.121094 Z M 182.285156 155.691406 C 180.542969 157.308594 180.078125 157.628906 179.308594 157.746094 L 178.796875 157.824219 L 179.214844 157.378906 C 179.746094 156.820312 183.980469 153.816406 183.921875 154.042969 C 183.898438 154.132812 183.160156 154.875 182.285156 155.691406 Z M 133.589844 150.339844 C 133.492188 149.40625 133.839844 147.144531 134.277344 145.847656 C 134.714844 144.554688 135.496094 142.800781 135.542969 143.007812 C 135.558594 143.074219 135.402344 144.167969 135.195312 145.445312 C 134.851562 147.585938 134.496094 148.914062 133.886719 150.328125 L 133.648438 150.890625 Z M 236.238281 148.96875 C 236.867188 148.597656 237.6875 148 238.058594 147.636719 C 238.628906 147.074219 238.859375 146.972656 239.578125 146.953125 C 241.296875 146.910156 241.964844 147.054688 242.390625 147.5625 C 242.714844 147.949219 243.136719 148.148438 244.792969 148.710938 C 246.628906 149.335938 247.671875 149.796875 247.570312 149.949219 C 247.550781 149.980469 246.980469 149.933594 246.300781 149.839844 C 243.878906 149.503906 243.320312 149.738281 243.558594 150.984375 C 243.675781 151.59375 243.660156 151.628906 243.347656 151.546875 C 243.164062 151.5 242.648438 151.386719 242.199219 151.296875 C 241.753906 151.203125 240.839844 150.980469 240.171875 150.796875 C 239.503906 150.609375 238.300781 150.359375 237.5 150.234375 C 236.183594 150.035156 235.011719 149.761719 235.070312 149.675781 C 235.082031 149.65625 235.605469 149.335938 236.238281 148.96875 Z M 252.746094 143.902344 C 253.8125 143.582031 255.4375 142.976562 256.355469 142.558594 C 261.726562 140.113281 263.238281 139.652344 260.734375 141.234375 C 258.929688 142.371094 253.136719 144.386719 251.480469 144.457031 C 251.019531 144.472656 251.421875 144.300781 252.746094 143.902344 Z M 208.390625 159.304688 C 207.5625 159.910156 206.378906 160.542969 206.347656 160.394531 C 206.300781 160.164062 207.765625 158.824219 208.753906 158.191406 L 209.863281 157.480469 L 209.527344 158.09375 C 209.332031 158.453125 208.851562 158.960938 208.390625 159.304688 Z M 193.199219 166.046875 C 194.878906 165.4375 195.257812 164.9375 194.808594 163.90625 C 194.394531 162.960938 193.335938 161.625 192.382812 160.855469 L 191.609375 160.230469 L 192.167969 160.242188 C 193.664062 160.277344 197.019531 158.984375 198.839844 157.671875 C 199.476562 157.210938 200.675781 156.070312 201.652344 155.003906 L 203.347656 153.144531 L 205.53125 152.394531 C 209.78125 150.9375 210.324219 150.652344 213.980469 148.003906 C 215.316406 147.035156 216.625 146.164062 216.886719 146.070312 C 217.601562 145.816406 221.40625 144.609375 222.070312 144.425781 L 222.648438 144.265625 L 222.289062 144.660156 C 222.09375 144.875 221.394531 145.714844 220.742188 146.523438 C 218.941406 148.753906 215.121094 152.511719 213.179688 153.96875 C 212.242188 154.671875 210.5 155.8125 209.308594 156.503906 C 207.019531 157.828125 206.308594 158.414062 205.535156 159.59375 C 204.648438 160.945312 205.210938 161.996094 206.59375 161.574219 C 207.546875 161.28125 209.089844 160.347656 209.878906 159.585938 C 210.515625 158.96875 210.53125 158.964844 210.273438 159.46875 C 209.835938 160.320312 209.34375 160.738281 207.859375 161.507812 C 206.398438 162.265625 205.980469 162.730469 206.246094 163.304688 C 206.464844 163.765625 208.285156 163.910156 209.796875 163.582031 C 211.699219 163.171875 214.933594 161.835938 217.851562 160.265625 C 221.953125 158.050781 222.46875 157.632812 225.542969 153.953125 C 226.570312 152.726562 227.628906 151.570312 227.898438 151.386719 C 228.378906 151.0625 229.308594 150.863281 231.988281 150.511719 C 232.957031 150.382812 233.605469 150.425781 234.425781 150.667969 C 235.039062 150.851562 236.199219 151.117188 237.007812 151.257812 C 239.316406 151.660156 242.492188 152.472656 243.058594 152.804688 C 243.515625 153.078125 243.550781 153.164062 243.386719 153.605469 C 242.871094 154.964844 241.378906 156.824219 239.226562 158.792969 C 238.6875 159.285156 237.921875 160.078125 237.53125 160.554688 C 237.140625 161.027344 236.648438 161.496094 236.441406 161.589844 C 235.960938 161.804688 231.539062 168.046875 231.152344 169.058594 C 230.691406 170.261719 231.316406 171.558594 233.128906 173.148438 C 234.175781 174.066406 235.902344 173.976562 237.859375 172.90625 C 238.308594 172.660156 240.414062 171.074219 242.539062 169.378906 C 246.378906 166.316406 246.929688 165.796875 251.050781 161.332031 C 254.007812 158.125 255.921875 156.738281 260.507812 154.472656 C 261.785156 153.84375 263.753906 152.675781 264.882812 151.882812 C 266.015625 151.089844 267.28125 150.199219 267.695312 149.90625 C 269.039062 148.960938 273.191406 145.351562 274.84375 143.695312 C 276.214844 142.320312 276.5625 141.882812 277.214844 140.699219 C 278.941406 137.574219 280.644531 132.785156 281.140625 129.660156 C 281.46875 127.59375 281.503906 127.5 282.25 126.480469 C 282.871094 125.632812 283.222656 125.316406 284.054688 124.855469 C 285.679688 123.953125 289.09375 122.777344 291.359375 122.339844 C 294.554688 121.722656 295.230469 121.671875 307.382812 121.085938 C 316.71875 120.640625 323.039062 120.023438 324.816406 119.382812 C 326.765625 118.683594 327.433594 118.074219 326.734375 117.625 C 326.515625 117.488281 326.121094 117.570312 325.394531 117.910156 C 324.832031 118.171875 323.746094 118.5 322.984375 118.632812 C 320.371094 119.09375 313.242188 119.679688 307.648438 119.894531 C 301.808594 120.117188 295.105469 120.5625 292.964844 120.867188 C 288.695312 121.472656 284.027344 123.140625 282.226562 124.703125 C 280.964844 125.804688 280.296875 127.152344 280.011719 129.203125 C 279.652344 131.738281 278.726562 134.675781 277.164062 138.214844 C 275.851562 141.195312 274.796875 142.417969 270.023438 146.5 C 266.425781 149.574219 262.617188 152.160156 259.253906 153.804688 C 255.3125 155.734375 253.046875 157.410156 250.300781 160.4375 C 247.625 163.382812 245.371094 165.648438 244.355469 166.414062 C 243.753906 166.867188 242.609375 167.785156 241.808594 168.449219 C 237.964844 171.65625 236.488281 172.578125 235.128906 172.621094 C 234.714844 172.632812 234.1875 172.519531 233.957031 172.367188 C 233.15625 171.84375 232.222656 170.660156 232.136719 170.066406 C 232.058594 169.496094 232.085938 169.449219 234.253906 166.261719 C 235.464844 164.488281 236.625 162.910156 236.835938 162.757812 C 237.332031 162.402344 238.039062 162.4375 240.585938 162.9375 C 242.414062 163.300781 242.707031 163.3125 242.953125 163.015625 C 243.363281 162.523438 243.132812 162.046875 242.1875 161.433594 C 241.5625 161.027344 241.085938 160.871094 240.191406 160.765625 C 239.542969 160.691406 239.0625 160.5625 239.117188 160.476562 C 239.171875 160.390625 239.527344 160.0625 239.90625 159.742188 C 243.125 157.027344 245.289062 153.472656 244.882812 151.566406 L 244.738281 150.890625 L 245.875 151.011719 C 246.496094 151.078125 247.75 151.308594 248.652344 151.519531 C 249.554688 151.734375 250.675781 151.910156 251.140625 151.914062 C 253.535156 151.941406 255.121094 151.222656 254.515625 150.390625 C 254.316406 150.113281 253.820312 150.070312 252.421875 150.207031 C 250.625 150.382812 249.984375 150.210938 248.375 149.128906 C 247.246094 148.367188 246.652344 148.082031 245.300781 147.648438 C 244.378906 147.351562 243.613281 147.066406 243.601562 147.015625 C 243.574219 146.875 247.910156 146.039062 249.613281 145.855469 C 252.117188 145.582031 254.410156 145.050781 256.964844 144.152344 C 261.488281 142.566406 264.296875 140.585938 263.761719 139.367188 C 263.34375 138.425781 262.066406 138.726562 257.042969 140.957031 C 255.390625 141.6875 253.082031 142.585938 251.90625 142.949219 C 248.664062 143.960938 244.53125 144.761719 242.308594 144.8125 C 241.222656 144.839844 240.03125 144.9375 239.664062 145.035156 C 238.984375 145.214844 238.105469 145.839844 237.28125 146.742188 C 237.035156 147.011719 236.167969 147.617188 235.351562 148.085938 C 233.839844 148.960938 232.796875 149.242188 229.472656 149.675781 C 227.597656 149.917969 227.179688 150.222656 224.742188 153.121094 C 221.617188 156.835938 221.386719 157.019531 216.628906 159.582031 C 214.570312 160.695312 210.523438 162.300781 209.167969 162.542969 C 208.285156 162.703125 208.328125 162.613281 209.441406 161.960938 C 209.988281 161.644531 210.550781 161.144531 210.960938 160.609375 C 211.550781 159.839844 211.632812 159.617188 211.804688 158.332031 C 211.90625 157.546875 211.921875 156.808594 211.835938 156.691406 C 211.703125 156.507812 211.808594 156.386719 212.488281 155.9375 C 213.875 155.023438 215.910156 153.3125 217.464844 151.757812 C 219.78125 149.4375 220.101562 149.09375 221.203125 147.730469 C 221.773438 147.027344 222.539062 146.144531 222.902344 145.761719 C 223.59375 145.042969 228.484375 141.644531 230.695312 140.34375 C 233.324219 138.800781 237.289062 136.085938 238.160156 135.234375 C 239.652344 133.777344 240.152344 132.777344 239.574219 132.402344 C 239.230469 132.179688 238.480469 132.6875 236.375 134.5625 C 235.21875 135.597656 234.074219 136.566406 233.835938 136.71875 L 233.394531 137 L 233.476562 135.875 C 233.613281 133.960938 232.757812 132.300781 231.292969 131.636719 C 230.71875 131.375 230.371094 131.394531 228.839844 131.757812 C 226.589844 132.292969 225.796875 132.625 223.429688 134.023438 C 222.382812 134.636719 220.363281 135.632812 218.941406 136.234375 C 215.128906 137.84375 213.457031 138.683594 211.367188 140.042969 C 210.332031 140.714844 208.957031 141.503906 208.308594 141.792969 C 206.84375 142.453125 206.261719 142.917969 204.035156 145.207031 C 202.132812 147.164062 200.507812 148.433594 198.804688 149.289062 C 197.46875 149.964844 194.78125 151.582031 193.46875 152.503906 C 192.917969 152.890625 191.636719 153.578125 190.613281 154.035156 C 189.59375 154.488281 188.441406 155.117188 188.058594 155.429688 C 187.128906 156.183594 186.972656 156.199219 187.09375 155.542969 C 187.152344 155.238281 187.019531 154.480469 186.800781 153.855469 C 186.582031 153.230469 186.359375 152.589844 186.308594 152.429688 C 186.230469 152.183594 186.445312 151.960938 187.648438 151.042969 C 188.4375 150.445312 190.242188 148.953125 191.660156 147.730469 C 195.976562 144.011719 197.066406 143.296875 201.527344 141.269531 C 208.652344 138.027344 212.097656 136.558594 215.671875 135.238281 C 228.527344 130.492188 235.695312 127.296875 243.671875 122.765625 C 246.96875 120.894531 248.800781 119.679688 252.578125 116.875 C 257.359375 113.320312 260.902344 111.246094 266.042969 109 C 270.191406 107.183594 274.078125 105.855469 287.40625 101.691406 C 290.703125 100.660156 295.308594 99.140625 297.636719 98.316406 C 299.964844 97.488281 301.953125 96.816406 302.054688 96.816406 C 302.160156 96.820312 302.347656 96.664062 302.472656 96.46875 C 302.773438 96.003906 302.234375 95.632812 301.515625 95.8125 C 301.234375 95.882812 300.304688 96.191406 299.449219 96.503906 C 296.4375 97.59375 293.15625 98.675781 288.839844 100.007812 C 282.226562 102.050781 272.578125 105.175781 269.734375 106.203125 C 267.085938 107.15625 261.664062 109.675781 259.09375 111.148438 C 256.304688 112.75 254.09375 114.222656 251.351562 116.316406 C 248.636719 118.390625 245.824219 120.21875 242.300781 122.191406 C 234.707031 126.449219 227.347656 129.691406 214.699219 134.347656 C 209.898438 136.117188 199.398438 140.789062 196.851562 142.292969 C 194.992188 143.386719 193.75 144.332031 191.105469 146.65625 C 188.597656 148.863281 184.472656 152.09375 181.636719 154.070312 C 179.058594 155.871094 178.246094 156.558594 177.6875 157.425781 C 177.257812 158.082031 177.203125 158.109375 175.738281 158.304688 C 174.910156 158.414062 173.398438 158.519531 172.378906 158.535156 C 171.359375 158.554688 169.179688 158.832031 167.53125 159.15625 C 164.910156 159.671875 163.554688 159.78125 160.769531 159.699219 C 160.3125 159.6875 160.078125 159.796875 159.796875 160.160156 L 159.425781 160.640625 L 158.316406 159.917969 C 157.410156 159.324219 157.015625 159.167969 156.125 159.046875 C 154.554688 158.832031 152.128906 158.941406 149.871094 159.335938 C 146.238281 159.96875 143.484375 159.941406 141.324219 159.246094 C 140.394531 158.949219 137.785156 157.074219 137.125 156.230469 C 136.421875 155.332031 136.027344 154.179688 135.941406 152.785156 C 135.871094 151.613281 136.339844 146.222656 136.699219 144.113281 C 136.78125 143.628906 136.816406 143.070312 136.773438 142.871094 C 136.675781 142.421875 136.222656 142.3125 135.828125 142.644531 C 135.339844 143.046875 135.917969 141.378906 136.710938 140.078125 C 137.453125 138.863281 138.117188 138.34375 139.925781 137.558594 C 140.914062 137.128906 141.933594 136.386719 143.398438 135.039062 C 143.851562 134.625 145.324219 133.507812 146.671875 132.558594 C 150.445312 129.90625 151.691406 128.550781 153.894531 124.683594 C 155.433594 121.984375 156.316406 120.015625 156.453125 118.988281 C 156.671875 117.332031 155.851562 115.703125 154.429688 114.964844 C 153.742188 114.605469 153.515625 114.582031 152.832031 114.78125 C 151.773438 115.085938 151.242188 115.605469 149.285156 118.234375 C 146.824219 121.527344 146.734375 121.609375 143.691406 123.226562 C 142.210938 124.015625 139.609375 125.480469 137.914062 126.488281 C 136.214844 127.492188 134.238281 128.535156 133.519531 128.800781 C 132.800781 129.066406 130.753906 129.589844 128.972656 129.964844 C 125.367188 130.722656 125.613281 130.589844 122.789062 133.3125 C 120.742188 135.285156 114.921875 138.648438 111.0625 140.085938 C 108.96875 140.867188 106.707031 141.113281 100.308594 141.265625 C 93.90625 141.417969 90.375 141.53125 85.902344 141.734375 C 81.351562 141.941406 74.136719 142.121094 67.074219 142.207031 C 61.792969 142.269531 59.023438 142.640625 58.570312 143.335938 C 58.316406 143.730469 58.453125 144.109375 58.851562 144.117188 C 58.980469 144.117188 59.378906 144.011719 59.738281 143.875 C 60.695312 143.515625 63.035156 143.320312 66.019531 143.359375 C 67.46875 143.378906 69.453125 143.371094 70.429688 143.34375 C 71.402344 143.316406 74.015625 143.261719 76.230469 143.226562 C 78.449219 143.1875 82.679688 143.050781 85.632812 142.921875 C 90.824219 142.695312 94.992188 142.5625 101.296875 142.421875 C 105.046875 142.339844 108.292969 142.070312 109.75 141.722656 C 112.230469 141.128906 115.675781 139.496094 119.636719 137.035156 C 122.015625 135.554688 122.78125 134.980469 124.007812 133.769531 C 124.824219 132.960938 125.714844 132.167969 125.988281 132.007812 C 126.261719 131.847656 128.015625 131.371094 129.882812 130.949219 C 131.75 130.523438 133.753906 129.996094 134.335938 129.769531 C 134.917969 129.542969 136.929688 128.449219 138.800781 127.339844 C 140.679688 126.230469 143.167969 124.824219 144.339844 124.21875 C 147.40625 122.628906 147.46875 122.570312 149.476562 119.835938 C 152.246094 116.066406 153.03125 115.433594 154.089844 116.128906 C 154.839844 116.617188 155.359375 117.722656 155.289062 118.675781 C 155.214844 119.722656 154.183594 121.984375 152.457031 124.894531 C 150.699219 127.859375 149.507812 129.101562 146.097656 131.523438 C 144.769531 132.464844 143.019531 133.816406 142.203125 134.523438 C 140.601562 135.914062 140.269531 136.136719 138.9375 136.703125 C 136.816406 137.605469 135.785156 138.890625 134.351562 142.417969 C 132.660156 146.578125 132.15625 149.023438 132.515625 151.296875 C 132.777344 152.9375 133.519531 153.285156 134.285156 152.132812 L 134.671875 151.554688 L 134.675781 152.066406 C 134.675781 153.097656 135.378906 155.828125 135.804688 156.480469 C 136.09375 156.921875 136.886719 157.644531 138.148438 158.625 L 140.054688 160.101562 L 141.792969 160.550781 C 143.972656 161.121094 146.203125 161.125 149.59375 160.566406 C 152.417969 160.105469 154.941406 159.996094 156.296875 160.28125 C 157.035156 160.4375 157.402344 160.628906 158.3125 161.316406 C 159.300781 162.066406 159.46875 162.148438 159.859375 162.042969 C 160.183594 161.957031 160.355469 161.785156 160.527344 161.359375 C 160.75 160.820312 160.796875 160.796875 161.582031 160.878906 C 163.035156 161.03125 164.863281 160.863281 168.019531 160.277344 C 169.71875 159.964844 171.878906 159.695312 172.824219 159.683594 C 173.769531 159.671875 175.453125 159.539062 176.5625 159.390625 C 181.769531 158.683594 181.597656 158.671875 186.601562 159.921875 C 190.9375 161 192.03125 161.617188 193.378906 163.746094 C 193.851562 164.488281 193.847656 164.539062 193.3125 164.734375 C 193.003906 164.847656 192.917969 164.808594 192.773438 164.503906 C 192.566406 164.054688 191.515625 163.828125 188.925781 163.675781 C 187.976562 163.621094 187.148438 163.542969 187.085938 163.5 C 186.839844 163.339844 185.945312 163.617188 185.757812 163.910156 C 185.644531 164.082031 185.585938 164.40625 185.625 164.636719 C 185.660156 164.871094 185.652344 165.0625 185.601562 165.066406 C 185.554688 165.070312 184.902344 165.027344 184.152344 164.964844 C 181.964844 164.796875 180.277344 164.84375 178.007812 165.136719 C 175.726562 165.4375 170.601562 166.820312 168.582031 167.6875 C 165.902344 168.839844 163.460938 169.269531 159.34375 169.316406 C 157.359375 169.339844 154.578125 169.515625 153.160156 169.703125 C 151.742188 169.894531 149.433594 170.132812 148.027344 170.230469 C 144.738281 170.46875 142.089844 171.332031 142.078125 172.171875 C 142.070312 172.785156 142.4375 172.917969 144.589844 173.070312 C 147.296875 173.261719 149.035156 173.195312 151.511719 172.796875 C 152.613281 172.621094 154.449219 172.371094 155.585938 172.242188 C 156.726562 172.113281 158.417969 171.847656 159.347656 171.652344 C 162.238281 171.042969 167.039062 169.640625 168.675781 168.929688 C 170.179688 168.273438 175.160156 166.769531 176.710938 166.503906 L 177.457031 166.375 L 176.878906 166.714844 C 176.5625 166.902344 175.40625 167.519531 174.316406 168.082031 C 172.011719 169.273438 171.070312 169.90625 169.3125 171.441406 C 168.609375 172.054688 167.738281 172.730469 167.378906 172.945312 C 167.007812 173.167969 165.0625 173.683594 162.894531 174.136719 C 154.769531 175.832031 150.605469 176.855469 148.28125 177.734375 C 145.992188 178.601562 141.378906 180.539062 140.617188 180.957031 C 140.410156 181.070312 139.480469 181.585938 138.546875 182.101562 C 136.699219 183.125 135.707031 183.421875 134.527344 183.300781 C 133.359375 183.179688 132.566406 182.796875 127.746094 180.015625 C 122.847656 177.195312 122.636719 177.082031 119.257812 175.46875 C 115.9375 173.882812 113.496094 172.941406 107.082031 170.761719 C 103.988281 169.710938 100.5 168.410156 99.328125 167.875 C 98.15625 167.335938 96.253906 166.511719 95.097656 166.039062 C 93.941406 165.566406 92.007812 164.730469 90.800781 164.1875 C 85.941406 161.992188 82.808594 161.527344 78.085938 162.304688 C 76.953125 162.492188 74.742188 162.785156 73.175781 162.957031 C 71.605469 163.132812 69.230469 163.445312 67.894531 163.660156 C 66.558594 163.871094 64.402344 164.136719 63.101562 164.253906 C 61.800781 164.367188 58.90625 164.65625 56.667969 164.894531 C 52.023438 165.390625 49.023438 165.59375 45.367188 165.65625 C 43.964844 165.679688 42.714844 165.777344 42.59375 165.863281 C 42.394531 166.011719 42.496094 166.664062 42.742188 166.824219 C 43.136719 167.082031 51.753906 166.617188 56.726562 166.070312 C 58.605469 165.863281 61.460938 165.570312 63.078125 165.421875 C 64.695312 165.269531 66.890625 165.007812 67.957031 164.835938 C 69.027344 164.664062 71.238281 164.371094 72.878906 164.1875 C 74.515625 164.003906 76.730469 163.710938 77.796875 163.539062 C 80.105469 163.171875 81.695312 163.054688 83.160156 163.152344 C 84.71875 163.257812 87.65625 164.066406 89.578125 164.925781 C 90.496094 165.332031 92.621094 166.242188 94.304688 166.945312 C 95.984375 167.652344 98.15625 168.601562 99.125 169.054688 C 100.097656 169.511719 103.433594 170.75 106.539062 171.808594 C 109.644531 172.867188 113.054688 174.066406 114.117188 174.472656 C 117.296875 175.695312 121.71875 177.894531 126.34375 180.550781 C 128.742188 181.929688 131.296875 183.347656 132.023438 183.707031 C 134.550781 184.949219 136.210938 184.765625 139.726562 182.855469 C 141.089844 182.113281 142.300781 181.605469 143.371094 181.332031 C 144.253906 181.105469 146.015625 180.648438 147.292969 180.316406 C 149.792969 179.667969 151.082031 179.546875 157.972656 179.324219 C 166.007812 179.066406 166.875 178.660156 170.609375 173.402344 C 172.496094 170.742188 173.496094 169.628906 174.199219 169.402344 C 174.328125 169.363281 175.394531 168.800781 176.570312 168.152344 C 179.945312 166.292969 180.851562 165.992188 182.835938 166.074219 C 185.25 166.171875 186.75 166.355469 187.117188 166.59375 C 188.023438 167.179688 190.757812 166.933594 193.199219 166.046875 " fill-opacity="1" fill-rule="nonzero"/></g></g></g><g clip-path="url(#92ce5c5b08)"><path fill="#000000" d="M 180.316406 105.648438 C 180.539062 106.527344 180.871094 107.363281 181.320312 108.152344 C 181.765625 108.945312 182.3125 109.660156 182.953125 110.300781 C 183.59375 110.941406 184.308594 111.488281 185.101562 111.933594 C 185.890625 112.382812 186.726562 112.714844 187.605469 112.9375 C 186.726562 113.15625 185.890625 113.492188 185.101562 113.9375 C 184.308594 114.386719 183.59375 114.929688 182.953125 115.574219 C 182.3125 116.214844 181.765625 116.929688 181.320312 117.71875 C 180.871094 118.507812 180.539062 119.34375 180.316406 120.226562 C 180.097656 119.34375 179.761719 118.507812 179.316406 117.71875 C 178.867188 116.929688 178.324219 116.214844 177.679688 115.574219 C 177.039062 114.929688 176.324219 114.386719 175.535156 113.9375 C 174.742188 113.492188 173.910156 113.15625 173.027344 112.9375 C 173.910156 112.714844 174.742188 112.382812 175.535156 111.933594 C 176.324219 111.488281 177.039062 110.941406 177.679688 110.300781 C 178.324219 109.660156 178.867188 108.945312 179.316406 108.152344 C 179.761719 107.363281 180.097656 106.527344 180.316406 105.648438 M 180.316406 94.1875 C 180.316406 98.410156 180.136719 101.683594 179.859375 104.21875 C 179.800781 104.746094 179.703125 105.261719 179.558594 105.765625 C 179.410156 106.273438 179.226562 106.765625 178.996094 107.242188 C 178.769531 107.714844 178.503906 108.167969 178.199219 108.597656 C 177.894531 109.027344 177.554688 109.429688 177.183594 109.804688 C 176.808594 110.175781 176.410156 110.515625 175.976562 110.820312 C 175.546875 111.125 175.09375 111.390625 174.621094 111.617188 C 174.144531 111.847656 173.652344 112.03125 173.144531 112.175781 C 172.640625 112.320312 172.125 112.421875 171.597656 112.480469 C 169.0625 112.757812 165.792969 112.9375 161.566406 112.9375 C 165.792969 112.9375 169.0625 113.117188 171.597656 113.394531 C 172.125 113.453125 172.640625 113.554688 173.144531 113.699219 C 173.652344 113.84375 174.144531 114.027344 174.621094 114.257812 C 175.09375 114.484375 175.546875 114.75 175.976562 115.054688 C 176.410156 115.359375 176.808594 115.699219 177.183594 116.070312 C 177.554688 116.445312 177.894531 116.847656 178.199219 117.277344 C 178.503906 117.707031 178.769531 118.160156 178.996094 118.636719 C 179.226562 119.109375 179.410156 119.601562 179.558594 120.109375 C 179.703125 120.617188 179.800781 121.128906 179.859375 121.65625 C 180.136719 124.191406 180.316406 127.464844 180.316406 131.6875 C 180.316406 127.464844 180.496094 124.191406 180.773438 121.65625 C 180.832031 121.128906 180.933594 120.617188 181.078125 120.109375 C 181.222656 119.601562 181.40625 119.109375 181.636719 118.636719 C 181.863281 118.160156 182.128906 117.707031 182.433594 117.277344 C 182.738281 116.847656 183.078125 116.445312 183.449219 116.070312 C 183.824219 115.699219 184.226562 115.359375 184.65625 115.054688 C 185.085938 114.75 185.539062 114.484375 186.015625 114.257812 C 186.488281 114.027344 186.980469 113.84375 187.488281 113.699219 C 187.996094 113.554688 188.511719 113.453125 189.035156 113.394531 C 191.570312 113.117188 194.84375 112.9375 199.066406 112.9375 C 194.84375 112.9375 191.570312 112.757812 189.035156 112.480469 C 188.511719 112.421875 187.996094 112.320312 187.488281 112.175781 C 186.980469 112.03125 186.488281 111.847656 186.015625 111.617188 C 185.539062 111.390625 185.085938 111.125 184.65625 110.820312 C 184.226562 110.515625 183.824219 110.175781 183.449219 109.804688 C 183.078125 109.429688 182.738281 109.027344 182.433594 108.597656 C 182.128906 108.167969 181.863281 107.714844 181.636719 107.242188 C 181.40625 106.765625 181.222656 106.273438 181.078125 105.765625 C 180.933594 105.261719 180.832031 104.746094 180.773438 104.21875 C 180.496094 101.683594 180.316406 98.410156 180.316406 94.1875 Z M 180.316406 94.1875 " fill-opacity="1" fill-rule="nonzero"/></g><g clip-path="url(#74d7063746)"><path fill="#000000" d="M 206.25 185.441406 C 206.472656 186.324219 206.804688 187.15625 207.253906 187.945312 C 207.699219 188.738281 208.246094 189.453125 208.886719 190.09375 C 209.527344 190.738281 210.246094 191.28125 211.035156 191.726562 C 211.824219 192.175781 212.660156 192.511719 213.539062 192.730469 C 212.660156 192.949219 211.824219 193.285156 211.035156 193.730469 C 210.246094 194.179688 209.527344 194.722656 208.886719 195.367188 C 208.246094 196.007812 207.699219 196.722656 207.253906 197.511719 C 206.804688 198.304688 206.472656 199.136719 206.25 200.019531 C 206.03125 199.136719 205.695312 198.304688 205.25 197.511719 C 204.800781 196.722656 204.257812 196.007812 203.613281 195.367188 C 202.972656 194.722656 202.257812 194.179688 201.46875 193.730469 C 200.679688 193.285156 199.84375 192.949219 198.960938 192.730469 C 199.84375 192.511719 200.679688 192.175781 201.46875 191.726562 C 202.257812 191.28125 202.972656 190.738281 203.613281 190.09375 C 204.257812 189.453125 204.800781 188.738281 205.25 187.945312 C 205.695312 187.15625 206.03125 186.324219 206.25 185.441406 M 206.25 173.980469 C 206.25 178.207031 206.070312 181.476562 205.792969 184.015625 C 205.734375 184.539062 205.636719 185.054688 205.492188 185.558594 C 205.347656 186.066406 205.160156 186.558594 204.933594 187.035156 C 204.703125 187.507812 204.4375 187.960938 204.132812 188.390625 C 203.828125 188.824219 203.488281 189.222656 203.117188 189.597656 C 202.742188 189.96875 202.34375 190.308594 201.910156 190.613281 C 201.480469 190.917969 201.027344 191.183594 200.554688 191.414062 C 200.078125 191.640625 199.585938 191.828125 199.082031 191.972656 C 198.574219 192.117188 198.058594 192.214844 197.535156 192.273438 C 194.996094 192.550781 191.726562 192.730469 187.5 192.730469 C 191.726562 192.730469 194.996094 192.910156 197.535156 193.1875 C 198.058594 193.246094 198.574219 193.347656 199.082031 193.492188 C 199.585938 193.636719 200.078125 193.824219 200.554688 194.050781 C 201.027344 194.277344 201.480469 194.542969 201.914062 194.847656 C 202.34375 195.152344 202.742188 195.492188 203.117188 195.867188 C 203.488281 196.238281 203.828125 196.640625 204.132812 197.070312 C 204.4375 197.5 204.703125 197.953125 204.933594 198.429688 C 205.160156 198.902344 205.347656 199.394531 205.492188 199.902344 C 205.636719 200.410156 205.734375 200.925781 205.792969 201.449219 C 206.070312 203.984375 206.25 207.257812 206.25 211.480469 C 206.25 207.257812 206.429688 203.984375 206.707031 201.449219 C 206.765625 200.925781 206.867188 200.410156 207.011719 199.902344 C 207.15625 199.394531 207.34375 198.902344 207.570312 198.429688 C 207.796875 197.953125 208.0625 197.5 208.367188 197.070312 C 208.671875 196.640625 209.011719 196.238281 209.386719 195.867188 C 209.757812 195.492188 210.160156 195.152344 210.589844 194.847656 C 211.019531 194.542969 211.472656 194.277344 211.949219 194.050781 C 212.421875 193.824219 212.914062 193.636719 213.421875 193.492188 C 213.929688 193.347656 214.445312 193.246094 214.96875 193.1875 C 217.503906 192.910156 220.777344 192.730469 225 192.730469 C 220.777344 192.730469 217.503906 192.550781 214.96875 192.273438 C 214.445312 192.214844 213.929688 192.117188 213.421875 191.972656 C 212.914062 191.828125 212.421875 191.640625 211.949219 191.414062 C 211.472656 191.183594 211.019531 190.917969 210.589844 190.613281 C 210.160156 190.308594 209.757812 189.96875 209.386719 189.597656 C 209.011719 189.222656 208.671875 188.824219 208.367188 188.390625 C 208.0625 187.960938 207.796875 187.507812 207.570312 187.035156 C 207.34375 186.558594 207.15625 186.066406 207.011719 185.558594 C 206.867188 185.054688 206.765625 184.539062 206.707031 184.015625 C 206.429688 181.476562 206.25 178.207031 206.25 173.980469 Z M 206.25 173.980469 " fill-opacity="1" fill-rule="nonzero"/></g><g fill="#000000" fill-opacity="1"><g transform="translate(59.894532, 270.938771)"><g><path d="M 11.28125 -21.65625 C 12.457031 -21.65625 13.425781 -21.488281 14.1875 -21.15625 C 14.945312 -20.832031 15.78125 -20.347656 16.6875 -19.703125 C 16.9375 -19.503906 17.132812 -19.40625 17.28125 -19.40625 C 17.65625 -19.40625 17.90625 -20.015625 18.03125 -21.234375 L 18.71875 -21.234375 C 18.632812 -19.941406 18.59375 -17.644531 18.59375 -14.34375 L 17.90625 -14.34375 C 17.726562 -15.40625 17.539062 -16.28125 17.34375 -16.96875 C 17.144531 -17.65625 16.832031 -18.257812 16.40625 -18.78125 C 15.832031 -19.5 15.078125 -20.066406 14.140625 -20.484375 C 13.210938 -20.910156 12.238281 -21.125 11.21875 -21.125 C 9.894531 -21.125 8.734375 -20.691406 7.734375 -19.828125 C 6.734375 -18.972656 5.960938 -17.75 5.421875 -16.15625 C 4.890625 -14.5625 4.625 -12.707031 4.625 -10.59375 C 4.625 -6.988281 5.195312 -4.351562 6.34375 -2.6875 C 7.488281 -1.019531 9.296875 -0.1875 11.765625 -0.1875 C 12.960938 -0.1875 14 -0.492188 14.875 -1.109375 C 15.238281 -1.347656 15.472656 -1.582031 15.578125 -1.8125 C 15.691406 -2.039062 15.75 -2.359375 15.75 -2.765625 L 15.75 -5.640625 C 15.75 -6.484375 15.664062 -7.09375 15.5 -7.46875 C 15.34375 -7.851562 15.0625 -8.113281 14.65625 -8.25 C 14.257812 -8.382812 13.613281 -8.472656 12.71875 -8.515625 L 12.71875 -9.125 C 13.757812 -9.0625 15.171875 -9.03125 16.953125 -9.03125 C 18.304688 -9.03125 19.34375 -9.0625 20.0625 -9.125 L 20.0625 -8.515625 C 19.601562 -8.472656 19.269531 -8.390625 19.0625 -8.265625 C 18.851562 -8.148438 18.710938 -7.921875 18.640625 -7.578125 C 18.578125 -7.242188 18.546875 -6.695312 18.546875 -5.9375 L 18.546875 0 L 17.9375 0 C 17.914062 -0.394531 17.832031 -0.773438 17.6875 -1.140625 C 17.550781 -1.515625 17.363281 -1.703125 17.125 -1.703125 C 17.007812 -1.703125 16.890625 -1.671875 16.765625 -1.609375 C 16.648438 -1.554688 16.441406 -1.421875 16.140625 -1.203125 C 15.441406 -0.660156 14.71875 -0.253906 13.96875 0.015625 C 13.21875 0.285156 12.378906 0.421875 11.453125 0.421875 C 9.398438 0.421875 7.632812 0 6.15625 -0.84375 C 4.6875 -1.695312 3.5625 -2.925781 2.78125 -4.53125 C 2.007812 -6.132812 1.625 -8.046875 1.625 -10.265625 C 1.625 -12.546875 2.035156 -14.550781 2.859375 -16.28125 C 3.691406 -18.007812 4.835938 -19.335938 6.296875 -20.265625 C 7.753906 -21.191406 9.414062 -21.65625 11.28125 -21.65625 Z M 11.28125 -21.65625 "/></g></g></g><g fill="#000000" fill-opacity="1"><g transform="translate(80.984515, 270.938771)"><g><path d="M 8.90625 -17.640625 C 8.1875 -17.597656 7.660156 -17.515625 7.328125 -17.390625 C 7.003906 -17.273438 6.78125 -17.046875 6.65625 -16.703125 C 6.539062 -16.367188 6.484375 -15.820312 6.484375 -15.0625 L 6.484375 -3.1875 C 6.484375 -2.425781 6.539062 -1.875 6.65625 -1.53125 C 6.78125 -1.1875 7.003906 -0.953125 7.328125 -0.828125 C 7.660156 -0.710938 8.1875 -0.632812 8.90625 -0.59375 L 8.90625 0 C 7.988281 -0.0625 6.71875 -0.09375 5.09375 -0.09375 C 3.375 -0.09375 2.097656 -0.0625 1.265625 0 L 1.265625 -0.59375 C 1.984375 -0.632812 2.503906 -0.710938 2.828125 -0.828125 C 3.160156 -0.953125 3.382812 -1.1875 3.5 -1.53125 C 3.625 -1.875 3.6875 -2.425781 3.6875 -3.1875 L 3.6875 -15.0625 C 3.6875 -15.820312 3.625 -16.367188 3.5 -16.703125 C 3.382812 -17.046875 3.160156 -17.273438 2.828125 -17.390625 C 2.503906 -17.515625 1.984375 -17.597656 1.265625 -17.640625 L 1.265625 -18.234375 C 2.097656 -18.179688 3.375 -18.15625 5.09375 -18.15625 C 6.695312 -18.15625 7.96875 -18.179688 8.90625 -18.234375 Z M 8.90625 -17.640625 "/></g></g></g><g fill="#000000" fill-opacity="1"><g transform="translate(91.154501, 270.938771)"><g><path d="M 10.828125 -18.65625 C 12.671875 -18.65625 14.285156 -18.289062 15.671875 -17.5625 C 17.066406 -16.832031 18.144531 -15.757812 18.90625 -14.34375 C 19.664062 -12.9375 20.046875 -11.253906 20.046875 -9.296875 C 20.046875 -7.378906 19.648438 -5.6875 18.859375 -4.21875 C 18.066406 -2.75 16.96875 -1.609375 15.5625 -0.796875 C 14.164062 0.015625 12.578125 0.421875 10.796875 0.421875 C 8.960938 0.421875 7.347656 0.0546875 5.953125 -0.671875 C 4.566406 -1.398438 3.492188 -2.46875 2.734375 -3.875 C 1.972656 -5.289062 1.59375 -6.976562 1.59375 -8.9375 C 1.59375 -10.851562 1.984375 -12.546875 2.765625 -14.015625 C 3.554688 -15.492188 4.648438 -16.632812 6.046875 -17.4375 C 7.453125 -18.25 9.046875 -18.65625 10.828125 -18.65625 Z M 10.703125 -18.125 C 9.484375 -18.125 8.410156 -17.738281 7.484375 -16.96875 C 6.554688 -16.195312 5.84375 -15.125 5.34375 -13.75 C 4.84375 -12.382812 4.59375 -10.820312 4.59375 -9.0625 C 4.59375 -7.28125 4.867188 -5.707031 5.421875 -4.34375 C 5.984375 -2.988281 6.742188 -1.945312 7.703125 -1.21875 C 8.671875 -0.488281 9.742188 -0.125 10.921875 -0.125 C 12.140625 -0.125 13.210938 -0.507812 14.140625 -1.28125 C 15.078125 -2.050781 15.796875 -3.117188 16.296875 -4.484375 C 16.796875 -5.859375 17.046875 -7.425781 17.046875 -9.1875 C 17.046875 -10.957031 16.765625 -12.523438 16.203125 -13.890625 C 15.640625 -15.253906 14.878906 -16.300781 13.921875 -17.03125 C 12.960938 -17.757812 11.890625 -18.125 10.703125 -18.125 Z M 10.703125 -18.125 "/></g></g></g><g fill="#000000" fill-opacity="1"><g transform="translate(112.784475, 270.938771)"><g><path d="M 16.5625 -18.15625 C 17.394531 -18.15625 18.0625 -18.179688 18.5625 -18.234375 L 18.5625 -17.640625 C 18.007812 -17.503906 17.5625 -17.226562 17.21875 -16.8125 C 16.875 -16.40625 16.484375 -15.703125 16.046875 -14.703125 L 9.484375 0.15625 L 9 0.15625 L 1.984375 -15.71875 C 1.441406 -16.957031 0.75 -17.597656 -0.09375 -17.640625 L -0.09375 -18.234375 C 0.726562 -18.179688 1.800781 -18.15625 3.125 -18.15625 C 4.84375 -18.15625 6.117188 -18.179688 6.953125 -18.234375 L 6.953125 -17.640625 C 6.210938 -17.597656 5.664062 -17.492188 5.3125 -17.328125 C 4.96875 -17.171875 4.796875 -16.90625 4.796875 -16.53125 C 4.796875 -16.207031 4.9375 -15.738281 5.21875 -15.125 L 10.375 -3.484375 L 14.84375 -13.4375 C 15.34375 -14.519531 15.59375 -15.367188 15.59375 -15.984375 C 15.59375 -16.546875 15.398438 -16.953125 15.015625 -17.203125 C 14.628906 -17.453125 14.035156 -17.597656 13.234375 -17.640625 L 13.234375 -18.234375 C 13.828125 -18.179688 14.9375 -18.15625 16.5625 -18.15625 Z M 16.5625 -18.15625 "/></g></g></g><g fill="#000000" fill-opacity="1"><g transform="translate(131.264461, 270.938771)"><g><path d="M 16.5 -2.515625 C 17.039062 -1.273438 17.726562 -0.632812 18.5625 -0.59375 L 18.5625 0 C 17.769531 -0.0625 16.703125 -0.09375 15.359375 -0.09375 C 13.640625 -0.09375 12.359375 -0.0625 11.515625 0 L 11.515625 -0.59375 C 12.253906 -0.632812 12.800781 -0.734375 13.15625 -0.890625 C 13.507812 -1.054688 13.6875 -1.328125 13.6875 -1.703125 C 13.6875 -2.023438 13.546875 -2.5 13.265625 -3.125 L 11.734375 -6.546875 L 4.4375 -6.546875 L 3.421875 -4.296875 C 3.078125 -3.515625 2.90625 -2.875 2.90625 -2.375 C 2.90625 -1.851562 3.085938 -1.445312 3.453125 -1.15625 C 3.828125 -0.863281 4.425781 -0.675781 5.25 -0.59375 L 5.25 0 C 4.644531 -0.0625 3.734375 -0.09375 2.515625 -0.09375 C 1.296875 -0.09375 0.425781 -0.0625 -0.09375 0 L -0.09375 -0.59375 C 0.445312 -0.738281 0.90625 -1.046875 1.28125 -1.515625 C 1.664062 -1.984375 2.03125 -2.609375 2.375 -3.390625 L 9 -18.390625 L 9.484375 -18.390625 Z M 11.484375 -7.140625 L 8.09375 -14.765625 L 4.6875 -7.140625 Z M 11.484375 -7.140625 "/></g></g></g><g fill="#000000" fill-opacity="1"><g transform="translate(149.744448, 270.938771)"><g><path d="M 19.5 -17.640625 C 18.800781 -17.597656 18.28125 -17.488281 17.9375 -17.3125 C 17.601562 -17.144531 17.375 -16.867188 17.25 -16.484375 C 17.125 -16.097656 17.0625 -15.523438 17.0625 -14.765625 L 17.0625 0.15625 L 16.375 0.15625 L 4.375 -16.46875 L 4.375 -3.484375 C 4.375 -2.703125 4.4375 -2.117188 4.5625 -1.734375 C 4.695312 -1.359375 4.953125 -1.082031 5.328125 -0.90625 C 5.710938 -0.738281 6.304688 -0.632812 7.109375 -0.59375 L 7.109375 0 C 6.390625 -0.0625 5.367188 -0.09375 4.046875 -0.09375 C 2.847656 -0.09375 1.921875 -0.0625 1.265625 0 L 1.265625 -0.59375 C 1.960938 -0.632812 2.476562 -0.738281 2.8125 -0.90625 C 3.15625 -1.082031 3.382812 -1.363281 3.5 -1.75 C 3.625 -2.144531 3.6875 -2.722656 3.6875 -3.484375 L 3.6875 -15.0625 C 3.6875 -15.820312 3.625 -16.367188 3.5 -16.703125 C 3.382812 -17.046875 3.160156 -17.273438 2.828125 -17.390625 C 2.503906 -17.515625 1.984375 -17.597656 1.265625 -17.640625 L 1.265625 -18.234375 C 1.921875 -18.179688 2.847656 -18.15625 4.046875 -18.15625 C 5.128906 -18.15625 6.050781 -18.179688 6.8125 -18.234375 L 16.375 -4.921875 L 16.375 -14.765625 C 16.375 -15.546875 16.304688 -16.125 16.171875 -16.5 C 16.046875 -16.875 15.789062 -17.144531 15.40625 -17.3125 C 15.03125 -17.488281 14.445312 -17.597656 13.65625 -17.640625 L 13.65625 -18.234375 C 14.375 -18.179688 15.390625 -18.15625 16.703125 -18.15625 C 17.910156 -18.15625 18.84375 -18.179688 19.5 -18.234375 Z M 19.5 -17.640625 "/></g></g></g><g fill="#000000" fill-opacity="1"><g transform="translate(170.294431, 270.938771)"><g><path d="M 16.5 -2.515625 C 17.039062 -1.273438 17.726562 -0.632812 18.5625 -0.59375 L 18.5625 0 C 17.769531 -0.0625 16.703125 -0.09375 15.359375 -0.09375 C 13.640625 -0.09375 12.359375 -0.0625 11.515625 0 L 11.515625 -0.59375 C 12.253906 -0.632812 12.800781 -0.734375 13.15625 -0.890625 C 13.507812 -1.054688 13.6875 -1.328125 13.6875 -1.703125 C 13.6875 -2.023438 13.546875 -2.5 13.265625 -3.125 L 11.734375 -6.546875 L 4.4375 -6.546875 L 3.421875 -4.296875 C 3.078125 -3.515625 2.90625 -2.875 2.90625 -2.375 C 2.90625 -1.851562 3.085938 -1.445312 3.453125 -1.15625 C 3.828125 -0.863281 4.425781 -0.675781 5.25 -0.59375 L 5.25 0 C 4.644531 -0.0625 3.734375 -0.09375 2.515625 -0.09375 C 1.296875 -0.09375 0.425781 -0.0625 -0.09375 0 L -0.09375 -0.59375 C 0.445312 -0.738281 0.90625 -1.046875 1.28125 -1.515625 C 1.664062 -1.984375 2.03125 -2.609375 2.375 -3.390625 L 9 -18.390625 L 9.484375 -18.390625 Z M 11.484375 -7.140625 L 8.09375 -14.765625 L 4.6875 -7.140625 Z M 11.484375 -7.140625 "/></g></g></g><g fill="#000000" fill-opacity="1"><g transform="translate(188.774418, 270.938771)"><g/></g></g><g fill="#000000" fill-opacity="1"><g transform="translate(196.244411, 270.938771)"><g><path d="M 24.875 -20.640625 C 24.15625 -20.597656 23.628906 -20.515625 23.296875 -20.390625 C 22.960938 -20.273438 22.734375 -20.046875 22.609375 -19.703125 C 22.492188 -19.367188 22.4375 -18.820312 22.4375 -18.0625 L 22.4375 -3.1875 C 22.4375 -2.425781 22.492188 -1.875 22.609375 -1.53125 C 22.734375 -1.1875 22.960938 -0.953125 23.296875 -0.828125 C 23.628906 -0.710938 24.15625 -0.632812 24.875 -0.59375 L 24.875 0 C 23.945312 -0.0625 22.675781 -0.09375 21.0625 -0.09375 C 19.34375 -0.09375 18.0625 -0.0625 17.21875 0 L 17.21875 -0.59375 C 17.9375 -0.632812 18.460938 -0.710938 18.796875 -0.828125 C 19.128906 -0.953125 19.351562 -1.1875 19.46875 -1.53125 C 19.59375 -1.875 19.65625 -2.425781 19.65625 -3.1875 L 19.65625 -19.265625 L 12.421875 0.15625 L 11.9375 0.15625 L 4.375 -19.3125 L 4.375 -3.484375 C 4.375 -2.703125 4.4375 -2.117188 4.5625 -1.734375 C 4.695312 -1.359375 4.953125 -1.082031 5.328125 -0.90625 C 5.710938 -0.738281 6.304688 -0.632812 7.109375 -0.59375 L 7.109375 0 C 6.390625 -0.0625 5.367188 -0.09375 4.046875 -0.09375 C 2.847656 -0.09375 1.921875 -0.0625 1.265625 0 L 1.265625 -0.59375 C 1.960938 -0.632812 2.476562 -0.738281 2.8125 -0.90625 C 3.15625 -1.082031 3.382812 -1.363281 3.5 -1.75 C 3.625 -2.144531 3.6875 -2.722656 3.6875 -3.484375 L 3.6875 -18.0625 C 3.6875 -18.820312 3.625 -19.367188 3.5 -19.703125 C 3.382812 -20.046875 3.160156 -20.273438 2.828125 -20.390625 C 2.503906 -20.515625 1.984375 -20.597656 1.265625 -20.640625 L 1.265625 -21.234375 C 1.921875 -21.179688 2.847656 -21.15625 4.046875 -21.15625 C 5.085938 -21.15625 5.9375 -21.179688 6.59375 -21.234375 L 13.203125 -3.875 L 19.65625 -21.15625 L 21.0625 -21.15625 C 22.675781 -21.15625 23.945312 -21.179688 24.875 -21.234375 Z M 24.875 -20.640625 "/></g></g></g><g fill="#000000" fill-opacity="1"><g transform="translate(222.374384, 270.938771)"><g><path d="M 10.828125 -18.65625 C 12.671875 -18.65625 14.285156 -18.289062 15.671875 -17.5625 C 17.066406 -16.832031 18.144531 -15.757812 18.90625 -14.34375 C 19.664062 -12.9375 20.046875 -11.253906 20.046875 -9.296875 C 20.046875 -7.378906 19.648438 -5.6875 18.859375 -4.21875 C 18.066406 -2.75 16.96875 -1.609375 15.5625 -0.796875 C 14.164062 0.015625 12.578125 0.421875 10.796875 0.421875 C 8.960938 0.421875 7.347656 0.0546875 5.953125 -0.671875 C 4.566406 -1.398438 3.492188 -2.46875 2.734375 -3.875 C 1.972656 -5.289062 1.59375 -6.976562 1.59375 -8.9375 C 1.59375 -10.851562 1.984375 -12.546875 2.765625 -14.015625 C 3.554688 -15.492188 4.648438 -16.632812 6.046875 -17.4375 C 7.453125 -18.25 9.046875 -18.65625 10.828125 -18.65625 Z M 10.703125 -18.125 C 9.484375 -18.125 8.410156 -17.738281 7.484375 -16.96875 C 6.554688 -16.195312 5.84375 -15.125 5.34375 -13.75 C 4.84375 -12.382812 4.59375 -10.820312 4.59375 -9.0625 C 4.59375 -7.28125 4.867188 -5.707031 5.421875 -4.34375 C 5.984375 -2.988281 6.742188 -1.945312 7.703125 -1.21875 C 8.671875 -0.488281 9.742188 -0.125 10.921875 -0.125 C 12.140625 -0.125 13.210938 -0.507812 14.140625 -1.28125 C 15.078125 -2.050781 15.796875 -3.117188 16.296875 -4.484375 C 16.796875 -5.859375 17.046875 -7.425781 17.046875 -9.1875 C 17.046875 -10.957031 16.765625 -12.523438 16.203125 -13.890625 C 15.640625 -15.253906 14.878906 -16.300781 13.921875 -17.03125 C 12.960938 -17.757812 11.890625 -18.125 10.703125 -18.125 Z M 10.703125 -18.125 "/></g></g></g><g fill="#000000" fill-opacity="1"><g transform="translate(244.004357, 270.938771)"><g><path d="M 18.953125 -1.265625 C 18.578125 -0.722656 18.144531 -0.304688 17.65625 -0.015625 C 17.164062 0.273438 16.582031 0.421875 15.90625 0.421875 C 14.21875 0.421875 13.1875 -0.335938 12.8125 -1.859375 L 11.875 -5.609375 C 11.59375 -6.734375 11.175781 -7.484375 10.625 -7.859375 C 10.082031 -8.242188 9.269531 -8.4375 8.1875 -8.4375 L 6.484375 -8.4375 L 6.484375 -3.1875 C 6.484375 -2.425781 6.539062 -1.875 6.65625 -1.53125 C 6.78125 -1.1875 7.003906 -0.953125 7.328125 -0.828125 C 7.660156 -0.710938 8.1875 -0.632812 8.90625 -0.59375 L 8.90625 0 C 7.988281 -0.0625 6.71875 -0.09375 5.09375 -0.09375 C 3.375 -0.09375 2.097656 -0.0625 1.265625 0 L 1.265625 -0.59375 C 1.984375 -0.632812 2.503906 -0.710938 2.828125 -0.828125 C 3.160156 -0.953125 3.382812 -1.1875 3.5 -1.53125 C 3.625 -1.875 3.6875 -2.425781 3.6875 -3.1875 L 3.6875 -15.0625 C 3.6875 -15.820312 3.625 -16.367188 3.5 -16.703125 C 3.382812 -17.046875 3.160156 -17.273438 2.828125 -17.390625 C 2.503906 -17.515625 1.984375 -17.597656 1.265625 -17.640625 L 1.265625 -18.234375 C 2.097656 -18.179688 3.316406 -18.15625 4.921875 -18.15625 L 7.984375 -18.1875 C 8.316406 -18.195312 8.707031 -18.203125 9.15625 -18.203125 C 11.394531 -18.203125 13.109375 -17.78125 14.296875 -16.9375 C 15.484375 -16.101562 16.078125 -15.019531 16.078125 -13.6875 C 16.078125 -12.519531 15.613281 -11.457031 14.6875 -10.5 C 13.757812 -9.539062 12.234375 -8.929688 10.109375 -8.671875 C 10.503906 -8.628906 10.84375 -8.585938 11.125 -8.546875 C 12.1875 -8.390625 13.023438 -8.070312 13.640625 -7.59375 C 14.265625 -7.113281 14.707031 -6.34375 14.96875 -5.28125 L 15.625 -2.546875 C 15.789062 -1.847656 15.96875 -1.351562 16.15625 -1.0625 C 16.34375 -0.769531 16.585938 -0.625 16.890625 -0.625 C 17.390625 -0.625 17.941406 -0.96875 18.546875 -1.65625 Z M 8.40625 -17.640625 C 7.863281 -17.640625 7.457031 -17.566406 7.1875 -17.421875 C 6.914062 -17.285156 6.726562 -17.035156 6.625 -16.671875 C 6.53125 -16.316406 6.484375 -15.78125 6.484375 -15.0625 L 6.484375 -9.03125 L 8.484375 -9.03125 C 10.242188 -9.03125 11.445312 -9.40625 12.09375 -10.15625 C 12.75 -10.90625 13.078125 -11.96875 13.078125 -13.34375 C 13.078125 -14.789062 12.710938 -15.867188 11.984375 -16.578125 C 11.253906 -17.285156 10.0625 -17.640625 8.40625 -17.640625 Z M 8.40625 -17.640625 "/></g></g></g><g fill="#000000" fill-opacity="1"><g transform="translate(262.724338, 270.938771)"><g><path d="M 16.5 -2.515625 C 17.039062 -1.273438 17.726562 -0.632812 18.5625 -0.59375 L 18.5625 0 C 17.769531 -0.0625 16.703125 -0.09375 15.359375 -0.09375 C 13.640625 -0.09375 12.359375 -0.0625 11.515625 0 L 11.515625 -0.59375 C 12.253906 -0.632812 12.800781 -0.734375 13.15625 -0.890625 C 13.507812 -1.054688 13.6875 -1.328125 13.6875 -1.703125 C 13.6875 -2.023438 13.546875 -2.5 13.265625 -3.125 L 11.734375 -6.546875 L 4.4375 -6.546875 L 3.421875 -4.296875 C 3.078125 -3.515625 2.90625 -2.875 2.90625 -2.375 C 2.90625 -1.851562 3.085938 -1.445312 3.453125 -1.15625 C 3.828125 -0.863281 4.425781 -0.675781 5.25 -0.59375 L 5.25 0 C 4.644531 -0.0625 3.734375 -0.09375 2.515625 -0.09375 C 1.296875 -0.09375 0.425781 -0.0625 -0.09375 0 L -0.09375 -0.59375 C 0.445312 -0.738281 0.90625 -1.046875 1.28125 -1.515625 C 1.664062 -1.984375 2.03125 -2.609375 2.375 -3.390625 L 9 -18.390625 L 9.484375 -18.390625 Z M 11.484375 -7.140625 L 8.09375 -14.765625 L 4.6875 -7.140625 Z M 11.484375 -7.140625 "/></g></g></g><g fill="#000000" fill-opacity="1"><g transform="translate(281.204324, 270.938771)"><g><path d="M 16.015625 -3.546875 C 16.015625 -2.503906 16.085938 -1.320312 16.234375 0 C 14.929688 -0.0625 12.738281 -0.09375 9.65625 -0.09375 C 5.957031 -0.09375 3.160156 -0.0625 1.265625 0 L 1.265625 -0.59375 C 1.984375 -0.632812 2.503906 -0.710938 2.828125 -0.828125 C 3.160156 -0.953125 3.382812 -1.1875 3.5 -1.53125 C 3.625 -1.875 3.6875 -2.425781 3.6875 -3.1875 L 3.6875 -15.0625 C 3.6875 -15.820312 3.625 -16.367188 3.5 -16.703125 C 3.382812 -17.046875 3.160156 -17.273438 2.828125 -17.390625 C 2.503906 -17.515625 1.984375 -17.597656 1.265625 -17.640625 L 1.265625 -18.234375 C 3.160156 -18.179688 5.957031 -18.15625 9.65625 -18.15625 C 12.457031 -18.15625 14.445312 -18.179688 15.625 -18.234375 C 15.488281 -17.035156 15.421875 -15.957031 15.421875 -15 C 15.421875 -14.21875 15.453125 -13.597656 15.515625 -13.140625 L 14.8125 -13.140625 C 14.675781 -14.773438 14.332031 -15.914062 13.78125 -16.5625 C 13.226562 -17.21875 12.332031 -17.546875 11.09375 -17.546875 L 8.90625 -17.546875 C 8.1875 -17.546875 7.660156 -17.488281 7.328125 -17.375 C 7.003906 -17.269531 6.78125 -17.046875 6.65625 -16.703125 C 6.539062 -16.367188 6.484375 -15.820312 6.484375 -15.0625 L 6.484375 -9.484375 L 8.96875 -9.484375 C 9.613281 -9.484375 10.101562 -9.644531 10.4375 -9.96875 C 10.78125 -10.300781 11.007812 -10.660156 11.125 -11.046875 C 11.25 -11.441406 11.359375 -11.941406 11.453125 -12.546875 L 12.15625 -12.546875 C 12.09375 -11.859375 12.0625 -11.113281 12.0625 -10.3125 L 12.0625 -9.1875 C 12.0625 -8.40625 12.117188 -7.28125 12.234375 -5.8125 L 11.546875 -5.8125 C 11.429688 -6.78125 11.203125 -7.53125 10.859375 -8.0625 C 10.515625 -8.601562 9.882812 -8.875 8.96875 -8.875 L 6.484375 -8.875 L 6.484375 -3.1875 C 6.484375 -2.425781 6.539062 -1.875 6.65625 -1.53125 C 6.78125 -1.1875 7.003906 -0.957031 7.328125 -0.84375 C 7.660156 -0.738281 8.1875 -0.6875 8.90625 -0.6875 L 11.09375 -0.6875 C 12.09375 -0.6875 12.882812 -0.847656 13.46875 -1.171875 C 14.050781 -1.492188 14.488281 -2.007812 14.78125 -2.71875 C 15.082031 -3.425781 15.296875 -4.421875 15.421875 -5.703125 L 16.109375 -5.703125 C 16.046875 -5.160156 16.015625 -4.441406 16.015625 -3.546875 Z M 16.015625 -3.546875 "/></g></g></g><g fill="#000000" fill-opacity="1"><g transform="translate(299.054291, 270.938771)"><g><path d="M 7.6875 -18.65625 C 8.5625 -18.65625 9.253906 -18.5625 9.765625 -18.375 C 10.273438 -18.1875 10.800781 -17.910156 11.34375 -17.546875 C 11.78125 -17.265625 12.117188 -17.125 12.359375 -17.125 C 12.535156 -17.125 12.675781 -17.226562 12.78125 -17.4375 C 12.882812 -17.65625 12.960938 -17.992188 13.015625 -18.453125 L 13.703125 -18.453125 C 13.609375 -17.410156 13.5625 -15.570312 13.5625 -12.9375 L 12.875 -12.9375 C 12.75 -14.375 12.28125 -15.59375 11.46875 -16.59375 C 10.664062 -17.59375 9.492188 -18.09375 7.953125 -18.09375 C 6.890625 -18.09375 6.015625 -17.8125 5.328125 -17.25 C 4.640625 -16.6875 4.296875 -15.976562 4.296875 -15.125 C 4.296875 -14.5 4.445312 -13.957031 4.75 -13.5 C 5.0625 -13.039062 5.460938 -12.644531 5.953125 -12.3125 C 6.441406 -11.976562 7.140625 -11.570312 8.046875 -11.09375 L 9.03125 -10.5625 C 10.269531 -9.894531 11.265625 -9.300781 12.015625 -8.78125 C 12.765625 -8.269531 13.367188 -7.675781 13.828125 -7 C 14.285156 -6.332031 14.515625 -5.5625 14.515625 -4.6875 C 14.515625 -3.0625 13.929688 -1.800781 12.765625 -0.90625 C 11.597656 -0.0195312 10.132812 0.421875 8.375 0.421875 C 7.414062 0.421875 6.628906 0.316406 6.015625 0.109375 C 5.398438 -0.0859375 4.816406 -0.351562 4.265625 -0.6875 C 3.816406 -0.96875 3.472656 -1.109375 3.234375 -1.109375 C 3.054688 -1.109375 2.914062 -1.003906 2.8125 -0.796875 C 2.71875 -0.585938 2.640625 -0.253906 2.578125 0.203125 L 1.890625 0.203125 C 1.972656 -0.773438 2.015625 -2.972656 2.015625 -6.390625 L 2.703125 -6.390625 C 2.835938 -4.523438 3.332031 -3.023438 4.1875 -1.890625 C 5.050781 -0.753906 6.375 -0.1875 8.15625 -0.1875 C 9.15625 -0.1875 10.019531 -0.46875 10.75 -1.03125 C 11.476562 -1.601562 11.84375 -2.445312 11.84375 -3.5625 C 11.84375 -4.226562 11.648438 -4.816406 11.265625 -5.328125 C 10.890625 -5.835938 10.382812 -6.289062 9.75 -6.6875 C 9.113281 -7.09375 8.222656 -7.59375 7.078125 -8.1875 C 5.441406 -9.03125 4.191406 -9.867188 3.328125 -10.703125 C 2.472656 -11.546875 2.046875 -12.640625 2.046875 -13.984375 C 2.046875 -15.460938 2.585938 -16.609375 3.671875 -17.421875 C 4.765625 -18.242188 6.101562 -18.65625 7.6875 -18.65625 Z M 7.6875 -18.65625 "/></g></g></g><g fill="#000000" fill-opacity="1"><g transform="translate(139.136718, 303.920135)"><g><path d="M 7.515625 -14 C 9.304688 -14 10.707031 -13.570312 11.71875 -12.71875 C 12.726562 -11.863281 13.234375 -10.691406 13.234375 -9.203125 C 13.234375 -7.703125 12.726562 -6.53125 11.71875 -5.6875 C 10.707031 -4.84375 9.304688 -4.421875 7.515625 -4.421875 L 3.765625 -4.421875 L 3.765625 0 L 2.28125 0 L 2.28125 -14 Z M 7.484375 -5.71875 C 8.867188 -5.71875 9.925781 -6.019531 10.65625 -6.625 C 11.394531 -7.238281 11.765625 -8.097656 11.765625 -9.203125 C 11.765625 -10.335938 11.394531 -11.207031 10.65625 -11.8125 C 9.925781 -12.414062 8.867188 -12.71875 7.484375 -12.71875 L 3.765625 -12.71875 L 3.765625 -5.71875 Z M 7.484375 -5.71875 "/></g></g></g><g fill="#000000" fill-opacity="1"><g transform="translate(153.491052, 303.920135)"><g><path d="M 4.796875 0.09375 C 3.941406 0.09375 3.125 -0.0234375 2.34375 -0.265625 C 1.570312 -0.515625 0.960938 -0.828125 0.515625 -1.203125 L 1.15625 -2.3125 C 1.59375 -1.96875 2.144531 -1.6875 2.8125 -1.46875 C 3.476562 -1.25 4.175781 -1.140625 4.90625 -1.140625 C 5.863281 -1.140625 6.570312 -1.289062 7.03125 -1.59375 C 7.488281 -1.894531 7.71875 -2.316406 7.71875 -2.859375 C 7.71875 -3.242188 7.585938 -3.546875 7.328125 -3.765625 C 7.078125 -3.984375 6.757812 -4.148438 6.375 -4.265625 C 5.988281 -4.378906 5.476562 -4.488281 4.84375 -4.59375 C 3.988281 -4.757812 3.300781 -4.925781 2.78125 -5.09375 C 2.257812 -5.257812 1.816406 -5.539062 1.453125 -5.9375 C 1.085938 -6.34375 0.90625 -6.894531 0.90625 -7.59375 C 0.90625 -8.476562 1.269531 -9.195312 2 -9.75 C 2.726562 -10.3125 3.75 -10.59375 5.0625 -10.59375 C 5.738281 -10.59375 6.414062 -10.503906 7.09375 -10.328125 C 7.78125 -10.148438 8.34375 -9.914062 8.78125 -9.625 L 8.15625 -8.484375 C 7.289062 -9.078125 6.257812 -9.375 5.0625 -9.375 C 4.15625 -9.375 3.46875 -9.210938 3 -8.890625 C 2.539062 -8.578125 2.3125 -8.160156 2.3125 -7.640625 C 2.3125 -7.242188 2.441406 -6.921875 2.703125 -6.671875 C 2.960938 -6.429688 3.285156 -6.253906 3.671875 -6.140625 C 4.066406 -6.035156 4.601562 -5.921875 5.28125 -5.796875 C 6.125 -5.640625 6.796875 -5.476562 7.296875 -5.3125 C 7.804688 -5.15625 8.238281 -4.882812 8.59375 -4.5 C 8.957031 -4.113281 9.140625 -3.582031 9.140625 -2.90625 C 9.140625 -1.976562 8.753906 -1.242188 7.984375 -0.703125 C 7.222656 -0.171875 6.160156 0.09375 4.796875 0.09375 Z M 4.796875 0.09375 "/></g></g></g><g fill="#000000" fill-opacity="1"><g transform="translate(163.26719, 303.920135)"><g><path d="M 1.984375 -10.515625 L 3.40625 -10.515625 L 3.40625 0 L 1.984375 0 Z M 2.703125 -12.8125 C 2.410156 -12.8125 2.160156 -12.910156 1.953125 -13.109375 C 1.753906 -13.316406 1.65625 -13.5625 1.65625 -13.84375 C 1.65625 -14.101562 1.753906 -14.332031 1.953125 -14.53125 C 2.160156 -14.738281 2.410156 -14.84375 2.703125 -14.84375 C 2.992188 -14.84375 3.238281 -14.742188 3.4375 -14.546875 C 3.644531 -14.359375 3.75 -14.128906 3.75 -13.859375 C 3.75 -13.566406 3.644531 -13.316406 3.4375 -13.109375 C 3.238281 -12.910156 2.992188 -12.8125 2.703125 -12.8125 Z M 2.703125 -12.8125 "/></g></g></g><g fill="#000000" fill-opacity="1"><g transform="translate(168.645066, 303.920135)"><g><path d="M 6.34375 0.09375 C 5.300781 0.09375 4.367188 -0.128906 3.546875 -0.578125 C 2.722656 -1.035156 2.078125 -1.671875 1.609375 -2.484375 C 1.148438 -3.304688 0.921875 -4.234375 0.921875 -5.265625 C 0.921875 -6.285156 1.148438 -7.203125 1.609375 -8.015625 C 2.078125 -8.828125 2.722656 -9.457031 3.546875 -9.90625 C 4.367188 -10.363281 5.300781 -10.59375 6.34375 -10.59375 C 7.25 -10.59375 8.054688 -10.414062 8.765625 -10.0625 C 9.484375 -9.71875 10.046875 -9.203125 10.453125 -8.515625 L 9.40625 -7.796875 C 9.050781 -8.316406 8.609375 -8.707031 8.078125 -8.96875 C 7.546875 -9.226562 6.96875 -9.359375 6.34375 -9.359375 C 5.582031 -9.359375 4.894531 -9.1875 4.28125 -8.84375 C 3.675781 -8.507812 3.203125 -8.023438 2.859375 -7.390625 C 2.523438 -6.765625 2.359375 -6.054688 2.359375 -5.265625 C 2.359375 -4.453125 2.523438 -3.734375 2.859375 -3.109375 C 3.203125 -2.492188 3.675781 -2.015625 4.28125 -1.671875 C 4.894531 -1.328125 5.582031 -1.15625 6.34375 -1.15625 C 6.96875 -1.15625 7.546875 -1.28125 8.078125 -1.53125 C 8.609375 -1.789062 9.050781 -2.179688 9.40625 -2.703125 L 10.453125 -1.984375 C 10.046875 -1.296875 9.484375 -0.773438 8.765625 -0.421875 C 8.046875 -0.078125 7.238281 0.09375 6.34375 0.09375 Z M 6.34375 0.09375 "/></g></g></g><g fill="#000000" fill-opacity="1"><g transform="translate(179.900627, 303.920135)"><g><path d="M 6.28125 0.09375 C 5.269531 0.09375 4.351562 -0.132812 3.53125 -0.59375 C 2.71875 -1.050781 2.078125 -1.6875 1.609375 -2.5 C 1.148438 -3.3125 0.921875 -4.234375 0.921875 -5.265625 C 0.921875 -6.285156 1.148438 -7.203125 1.609375 -8.015625 C 2.078125 -8.828125 2.71875 -9.457031 3.53125 -9.90625 C 4.351562 -10.363281 5.269531 -10.59375 6.28125 -10.59375 C 7.289062 -10.59375 8.203125 -10.363281 9.015625 -9.90625 C 9.828125 -9.457031 10.460938 -8.828125 10.921875 -8.015625 C 11.390625 -7.203125 11.625 -6.285156 11.625 -5.265625 C 11.625 -4.234375 11.390625 -3.3125 10.921875 -2.5 C 10.460938 -1.6875 9.828125 -1.050781 9.015625 -0.59375 C 8.203125 -0.132812 7.289062 0.09375 6.28125 0.09375 Z M 6.28125 -1.15625 C 7.03125 -1.15625 7.703125 -1.328125 8.296875 -1.671875 C 8.890625 -2.015625 9.351562 -2.5 9.6875 -3.125 C 10.019531 -3.75 10.1875 -4.460938 10.1875 -5.265625 C 10.1875 -6.054688 10.019531 -6.765625 9.6875 -7.390625 C 9.351562 -8.023438 8.890625 -8.507812 8.296875 -8.84375 C 7.703125 -9.1875 7.03125 -9.359375 6.28125 -9.359375 C 5.53125 -9.359375 4.859375 -9.1875 4.265625 -8.84375 C 3.671875 -8.507812 3.203125 -8.023438 2.859375 -7.390625 C 2.523438 -6.765625 2.359375 -6.054688 2.359375 -5.265625 C 2.359375 -4.460938 2.523438 -3.75 2.859375 -3.125 C 3.203125 -2.5 3.671875 -2.015625 4.265625 -1.671875 C 4.859375 -1.328125 5.53125 -1.15625 6.28125 -1.15625 Z M 7.703125 -14.640625 L 9.609375 -14.640625 L 6.359375 -12.15625 L 4.96875 -12.15625 Z M 7.703125 -14.640625 "/></g></g></g><g fill="#000000" fill-opacity="1"><g transform="translate(192.435683, 303.920135)"><g><path d="M 1.984375 -14.84375 L 3.40625 -14.84375 L 3.40625 0 L 1.984375 0 Z M 1.984375 -14.84375 "/></g></g></g><g fill="#000000" fill-opacity="1"><g transform="translate(197.813559, 303.920135)"><g><path d="M 6.28125 0.09375 C 5.269531 0.09375 4.351562 -0.132812 3.53125 -0.59375 C 2.71875 -1.050781 2.078125 -1.6875 1.609375 -2.5 C 1.148438 -3.3125 0.921875 -4.234375 0.921875 -5.265625 C 0.921875 -6.285156 1.148438 -7.203125 1.609375 -8.015625 C 2.078125 -8.828125 2.71875 -9.457031 3.53125 -9.90625 C 4.351562 -10.363281 5.269531 -10.59375 6.28125 -10.59375 C 7.289062 -10.59375 8.203125 -10.363281 9.015625 -9.90625 C 9.828125 -9.457031 10.460938 -8.828125 10.921875 -8.015625 C 11.390625 -7.203125 11.625 -6.285156 11.625 -5.265625 C 11.625 -4.234375 11.390625 -3.3125 10.921875 -2.5 C 10.460938 -1.6875 9.828125 -1.050781 9.015625 -0.59375 C 8.203125 -0.132812 7.289062 0.09375 6.28125 0.09375 Z M 6.28125 -1.15625 C 7.03125 -1.15625 7.703125 -1.328125 8.296875 -1.671875 C 8.890625 -2.015625 9.351562 -2.5 9.6875 -3.125 C 10.019531 -3.75 10.1875 -4.460938 10.1875 -5.265625 C 10.1875 -6.054688 10.019531 -6.765625 9.6875 -7.390625 C 9.351562 -8.023438 8.890625 -8.507812 8.296875 -8.84375 C 7.703125 -9.1875 7.03125 -9.359375 6.28125 -9.359375 C 5.53125 -9.359375 4.859375 -9.1875 4.265625 -8.84375 C 3.671875 -8.507812 3.203125 -8.023438 2.859375 -7.390625 C 2.523438 -6.765625 2.359375 -6.054688 2.359375 -5.265625 C 2.359375 -4.460938 2.523438 -3.75 2.859375 -3.125 C 3.203125 -2.5 3.671875 -2.015625 4.265625 -1.671875 C 4.859375 -1.328125 5.53125 -1.15625 6.28125 -1.15625 Z M 6.28125 -1.15625 "/></g></g></g><g fill="#000000" fill-opacity="1"><g transform="translate(210.348616, 303.920135)"><g><path d="M 11.71875 -10.515625 L 11.71875 -1.28125 C 11.71875 0.507812 11.28125 1.832031 10.40625 2.6875 C 9.53125 3.550781 8.210938 3.984375 6.453125 3.984375 C 5.484375 3.984375 4.5625 3.835938 3.6875 3.546875 C 2.8125 3.265625 2.101562 2.867188 1.5625 2.359375 L 2.28125 1.28125 C 2.789062 1.726562 3.40625 2.078125 4.125 2.328125 C 4.851562 2.585938 5.617188 2.71875 6.421875 2.71875 C 7.753906 2.71875 8.734375 2.40625 9.359375 1.78125 C 9.984375 1.164062 10.296875 0.207031 10.296875 -1.09375 L 10.296875 -2.4375 C 9.859375 -1.769531 9.28125 -1.265625 8.5625 -0.921875 C 7.851562 -0.578125 7.066406 -0.40625 6.203125 -0.40625 C 5.210938 -0.40625 4.3125 -0.617188 3.5 -1.046875 C 2.695312 -1.484375 2.066406 -2.09375 1.609375 -2.875 C 1.148438 -3.65625 0.921875 -4.535156 0.921875 -5.515625 C 0.921875 -6.503906 1.148438 -7.382812 1.609375 -8.15625 C 2.066406 -8.925781 2.695312 -9.523438 3.5 -9.953125 C 4.300781 -10.378906 5.203125 -10.59375 6.203125 -10.59375 C 7.097656 -10.59375 7.90625 -10.410156 8.625 -10.046875 C 9.34375 -9.691406 9.921875 -9.175781 10.359375 -8.5 L 10.359375 -10.515625 Z M 6.34375 -1.65625 C 7.101562 -1.65625 7.785156 -1.816406 8.390625 -2.140625 C 9.003906 -2.472656 9.484375 -2.929688 9.828125 -3.515625 C 10.171875 -4.109375 10.34375 -4.773438 10.34375 -5.515625 C 10.34375 -6.265625 10.171875 -6.925781 9.828125 -7.5 C 9.484375 -8.082031 9.007812 -8.535156 8.40625 -8.859375 C 7.800781 -9.191406 7.113281 -9.359375 6.34375 -9.359375 C 5.582031 -9.359375 4.894531 -9.195312 4.28125 -8.875 C 3.675781 -8.5625 3.203125 -8.109375 2.859375 -7.515625 C 2.523438 -6.929688 2.359375 -6.265625 2.359375 -5.515625 C 2.359375 -4.773438 2.523438 -4.109375 2.859375 -3.515625 C 3.203125 -2.929688 3.675781 -2.472656 4.28125 -2.140625 C 4.894531 -1.816406 5.582031 -1.65625 6.34375 -1.65625 Z M 6.34375 -1.65625 "/></g></g></g><g fill="#000000" fill-opacity="1"><g transform="translate(224.063203, 303.920135)"><g><path d="M 5.65625 -10.59375 C 7.03125 -10.59375 8.082031 -10.25 8.8125 -9.5625 C 9.550781 -8.882812 9.921875 -7.867188 9.921875 -6.515625 L 9.921875 0 L 8.5625 0 L 8.5625 -1.640625 C 8.238281 -1.085938 7.765625 -0.660156 7.140625 -0.359375 C 6.523438 -0.0546875 5.789062 0.09375 4.9375 0.09375 C 3.769531 0.09375 2.835938 -0.179688 2.140625 -0.734375 C 1.441406 -1.296875 1.09375 -2.035156 1.09375 -2.953125 C 1.09375 -3.847656 1.414062 -4.566406 2.0625 -5.109375 C 2.71875 -5.660156 3.75 -5.9375 5.15625 -5.9375 L 8.5 -5.9375 L 8.5 -6.578125 C 8.5 -7.484375 8.242188 -8.171875 7.734375 -8.640625 C 7.234375 -9.117188 6.492188 -9.359375 5.515625 -9.359375 C 4.847656 -9.359375 4.207031 -9.25 3.59375 -9.03125 C 2.988281 -8.8125 2.460938 -8.507812 2.015625 -8.125 L 1.375 -9.1875 C 1.914062 -9.632812 2.554688 -9.976562 3.296875 -10.21875 C 4.046875 -10.46875 4.832031 -10.59375 5.65625 -10.59375 Z M 5.15625 -1.015625 C 5.957031 -1.015625 6.644531 -1.195312 7.21875 -1.5625 C 7.789062 -1.9375 8.21875 -2.46875 8.5 -3.15625 L 8.5 -4.875 L 5.203125 -4.875 C 3.398438 -4.875 2.5 -4.25 2.5 -3 C 2.5 -2.382812 2.734375 -1.898438 3.203125 -1.546875 C 3.671875 -1.191406 4.320312 -1.015625 5.15625 -1.015625 Z M 5.15625 -1.015625 "/></g></g></g></svg>