<svg width="42" height="42" viewBox="0 0 42 42" fill="none" xmlns="http://www.w3.org/2000/svg">
<path d="M37.5144 13.5765C37.8099 12.5394 37.874 11.4501 37.7021 10.3856C37.5301 9.32101 37.1264 8.30724 36.5193 7.41597C35.9123 6.52469 35.1169 5.77767 34.1893 5.22775C33.2617 4.67784 32.2246 4.33845 31.1514 4.2336C30.7207 2.99799 29.9167 1.92682 28.8504 1.16833C27.7842 0.409843 26.5085 0.00156256 25.2 0C23.6451 0.00526643 22.1479 0.589187 21 1.638C19.8521 0.589187 18.3549 0.00526643 16.8 0C14.0679 0 11.739 1.7451 10.8675 4.2315C9.79237 4.33372 8.75291 4.67128 7.82285 5.22024C6.89279 5.76919 6.09493 6.51609 5.48587 7.40794C4.87681 8.29979 4.47146 9.31474 4.29859 10.3808C4.12573 11.4468 4.18957 12.5379 4.4856 13.5765C3.13747 14.2938 2.00865 15.3626 1.21891 16.6696C0.429173 17.9766 0.00797155 19.473 0 21C0 23.2575 0.8988 25.3806 2.4612 26.9472C2.22214 27.7429 2.10046 28.5692 2.1 29.4C2.1 33.5097 5.0652 36.939 9.0426 37.6614C9.6265 38.9519 10.5694 40.0471 11.7587 40.8164C12.948 41.5857 14.3336 41.9966 15.75 42C17.8059 42 19.6644 41.1453 21 39.7761C21.6817 40.4793 22.4976 41.0385 23.3995 41.4205C24.3013 41.8025 25.2706 41.9996 26.25 42C27.6639 41.9974 29.0472 41.5882 30.235 40.8211C31.4228 40.0541 32.3649 38.9616 32.949 37.674C34.1207 37.4674 35.2353 37.0147 36.2191 36.3456C37.2029 35.6766 38.0337 34.8065 38.6564 33.7927C39.2792 32.7789 39.6799 31.6446 39.832 30.4646C39.9841 29.2846 39.8842 28.0857 39.5388 26.9472C40.3196 26.1662 40.9388 25.2389 41.3611 24.2185C41.7834 23.198 42.0005 22.1044 42 21C41.992 19.473 41.5708 17.9766 40.7811 16.6696C39.9913 15.3626 38.8625 14.2938 37.5144 13.5765ZM15.75 37.8C14.2569 37.8 12.957 36.7416 12.663 35.2842L12.2178 33.6H10.5C8.1837 33.6 6.3 31.7163 6.3 29.4C6.3 28.6608 6.4785 27.9678 6.8313 27.3399L7.7889 25.6263L6.1425 24.5553C5.54775 24.1719 5.05842 23.6457 4.71913 23.0247C4.37984 22.4037 4.20137 21.7076 4.2 21C4.2 18.9483 5.7183 17.1696 7.7322 16.8588L11.2875 16.3128L9.0636 13.4862C8.66756 12.9756 8.43788 12.3557 8.40563 11.7104C8.37338 11.065 8.54012 10.4253 8.88328 9.87782C9.22645 9.33031 9.72949 8.90141 10.3244 8.64912C10.9192 8.39683 11.5773 8.33332 12.2094 8.4672L14.7 8.8347V6.3C14.7 5.74305 14.9212 5.2089 15.3151 4.81508C15.7089 4.42125 16.243 4.2 16.8 4.2C17.357 4.2 17.8911 4.42125 18.2849 4.81508C18.6787 5.2089 18.9 5.74305 18.9 6.3V34.65C18.9 36.3867 17.4867 37.8 15.75 37.8ZM35.8575 24.5532L34.2111 25.6242L35.1687 27.3378C35.5215 27.9678 35.7 28.6608 35.7 29.4C35.7 31.7163 33.8163 33.6 31.395 33.6H29.6772L29.337 35.2842C29.1902 35.9946 28.803 36.6326 28.2407 37.0909C27.6784 37.5491 26.9754 37.7996 26.25 37.8C24.5133 37.8 23.1 36.3867 23.1 34.65V6.3C23.1 5.1408 24.0408 4.2 25.2 4.2C26.3592 4.2 27.3 5.1408 27.3 6.405V8.9397L29.7906 8.4672C30.4227 8.33332 31.0808 8.39683 31.6756 8.64912C32.2705 8.90141 32.7735 9.33031 33.1167 9.87782C33.4599 10.4253 33.6266 11.065 33.5944 11.7104C33.5621 12.3557 33.3324 12.9756 32.9364 13.4862L30.7125 16.3149L34.2678 16.8609C35.2516 17.0202 36.1469 17.5238 36.7938 18.2819C37.4408 19.0401 37.7974 20.0034 37.8 21C37.8 22.4343 37.0734 23.7615 35.8575 24.5532Z" fill="white"/>
</svg>
