<svg width="42" height="42" viewBox="0 0 42 42" fill="none" xmlns="http://www.w3.org/2000/svg">
<g clip-path="url(#clip0_1_53)">
<path d="M0 21.4922C0 23.8438 0.669922 26.0586 2.00977 28.1367C3.34961 30.2148 5.14062 31.9102 7.38281 33.2227C7.27344 33.6055 7.15039 34.0977 7.01367 34.6992C6.87695 35.3008 6.68555 36.2441 6.43945 37.5293C6.19336 38.8145 6.09766 39.8809 6.15234 40.7285C6.20703 41.5762 6.48047 42 6.97266 42C8.61328 42 10.2676 41.5625 11.9355 40.6875C13.6035 39.8125 14.9297 38.9375 15.9141 38.0625C16.8984 37.1875 17.418 36.75 17.4727 36.75C20.4805 36.75 23.4062 36.1758 26.25 35.0273C25.9219 34.918 25.3066 34.5898 24.4043 34.043C23.502 33.4961 22.9414 33.2227 22.7227 33.2227H17.4727C16.4883 33.2227 15.4492 33.7695 14.3555 34.8633C12.8242 36.2305 11.375 37.2148 10.0078 37.8164L10.5 31.5L9.10547 30.2695C5.38672 27.8633 3.52734 24.9375 3.52734 21.4922C3.52734 20.6172 3.69141 19.6328 4.01953 18.5391C3.80078 18.2109 3.65039 17.7051 3.56836 17.0215C3.48633 16.3379 3.44531 15.7227 3.44531 15.1758V13.2891L3.52734 12.2227C1.17578 14.7383 0 17.8281 0 21.4922ZM24.5273 0C19.6602 0 15.5176 1.42187 12.0996 4.26562C8.68164 7.10938 6.97266 10.5273 6.97266 14.5195C6.97266 18.457 8.66797 21.6836 12.0586 24.1992C15.4492 26.7148 19.6055 27.9727 24.5273 27.9727C24.582 27.9727 25.1426 28.5605 26.209 29.7363C27.2754 30.9121 28.6836 32.0879 30.4336 33.2637C32.1836 34.4395 33.8789 35.0273 35.5195 35.0273C35.9023 35.0273 36.1348 34.7266 36.2168 34.125C36.2988 33.5234 36.2578 32.7988 36.0938 31.9512C35.9297 31.1035 35.7383 30.2422 35.5195 29.3672C35.3008 28.4922 35.1094 27.7539 34.9453 27.1523L34.6172 26.25C36.8594 24.8828 38.6504 23.1738 39.9902 21.123C41.3301 19.0723 42 16.8711 42 14.5195C42 10.5273 40.291 7.10938 36.873 4.26562C33.4551 1.42187 29.3398 0 24.5273 0ZM32.8945 23.2969L30.5977 24.6914L31.5 27.3164C31.6094 27.5898 31.7461 28.0547 31.9102 28.7109C32.0742 29.3672 32.2383 29.8867 32.4023 30.2695C31.1992 29.4492 29.7773 28.2188 28.1367 26.5781C26.8789 25.2109 25.7305 24.5273 24.6914 24.5273C20.8633 24.5273 17.5684 23.6387 14.8066 21.8613C12.0449 20.084 10.6641 17.6367 10.6641 14.5195C10.6094 11.457 11.9355 8.85938 14.6426 6.72656C17.3496 4.59375 20.6445 3.52734 24.5273 3.52734C28.4102 3.52734 31.7051 4.59375 34.4121 6.72656C37.1191 8.85938 38.4727 11.457 38.4727 14.5195C38.4727 17.9648 36.6133 20.8906 32.8945 23.2969Z" fill="white"/>
</g>
<defs>
<clipPath id="clip0_1_53">
<rect width="42" height="42" fill="white"/>
</clipPath>
</defs>
</svg>
