<svg width="42" height="42" viewBox="0 0 42 42" fill="none" xmlns="http://www.w3.org/2000/svg">
<path d="M22.75 14V28C22.75 29.3924 22.1969 30.7277 21.2123 31.7123C20.2277 32.6969 18.8924 33.25 17.5 33.25H13.7025C13.2897 34.4181 12.4772 35.4027 11.4086 36.0296C10.34 36.6566 9.08421 36.8856 7.86312 36.6762C6.64203 36.4667 5.5343 35.8324 4.73572 34.8852C3.93714 33.9379 3.49915 32.7389 3.49915 31.5C3.49915 30.2611 3.93714 29.0621 4.73572 28.1148C5.5343 27.1676 6.64203 26.5333 7.86312 26.3238C9.08421 26.1144 10.34 26.3434 11.4086 26.9704C12.4772 27.5973 13.2897 28.5819 13.7025 29.75H17.5C17.9641 29.75 18.4092 29.5656 18.7374 29.2374C19.0656 28.9092 19.25 28.4641 19.25 28V14C19.25 12.6076 19.8031 11.2723 20.7877 10.2877C21.7723 9.30312 23.1076 8.75 24.5 8.75H29.75V3.5L38.5 10.5L29.75 17.5V12.25H24.5C24.0359 12.25 23.5908 12.4344 23.2626 12.7626C22.9344 13.0908 22.75 13.5359 22.75 14Z" fill="white"/>
</svg>
