<svg width="42" height="42" viewBox="0 0 42 42" fill="none" xmlns="http://www.w3.org/2000/svg">
<path d="M36.539 4.84805C35.7704 8.17031 33.0007 10.5 29.8277 10.5C26.6547 10.5 23.885 8.17031 23.1165 4.84805L22.4469 1.98516C22.1273 0.582422 20.8033 -0.270703 19.4946 0.0820312C18.1858 0.434766 17.402 1.85391 17.7292 3.26484L18.3912 6.12773C19.2282 9.73711 21.4501 12.6574 24.3492 14.298V39.375C24.3492 40.827 25.4373 42 26.7841 42C28.1309 42 29.219 40.827 29.219 39.375V28.875H30.4365V39.375C30.4365 40.827 31.5246 42 32.8714 42C34.2182 42 35.3063 40.827 35.3063 39.375V14.298C38.2054 12.6574 40.4272 9.73711 41.2642 6.12773L41.9262 3.26484C42.2534 1.86211 41.4621 0.434766 40.1533 0.0820312C38.8445 -0.270703 37.5281 0.582422 37.2086 1.98516L36.5466 4.84805H36.539ZM29.8277 7.875C30.7964 7.875 31.7254 7.46016 32.4103 6.72173C33.0953 5.98331 33.4801 4.98179 33.4801 3.9375C33.4801 2.89321 33.0953 1.89169 32.4103 1.15327C31.7254 0.414843 30.7964 0 29.8277 0C28.8591 0 27.9301 0.414843 27.2451 1.15327C26.5602 1.89169 26.1754 2.89321 26.1754 3.9375C26.1754 4.98179 26.5602 5.98331 27.2451 6.72173C27.9301 7.46016 28.8591 7.875 29.8277 7.875ZM5.47856 7.875C6.44723 7.875 7.37623 7.46016 8.06118 6.72173C8.74613 5.98331 9.13094 4.98179 9.13094 3.9375C9.13094 2.89321 8.74613 1.89169 8.06118 1.15327C7.37623 0.414843 6.44723 0 5.47856 0C4.50989 0 3.5809 0.414843 2.89594 1.15327C2.21099 1.89169 1.82619 2.89321 1.82619 3.9375C1.82619 4.98179 2.21099 5.98331 2.89594 6.72173C3.5809 7.46016 4.50989 7.875 5.47856 7.875ZM4.86983 10.5C2.18382 10.5 0 12.8543 0 15.75V39.375C0 40.827 1.0881 42 2.43492 42C3.78173 42 4.86983 40.827 4.86983 39.375V28.875H6.08729V39.375C6.08729 40.827 7.17539 42 8.52221 42C9.86902 42 10.9571 40.827 10.9571 39.375V20.7293L11.9463 22.4109C12.3952 23.1656 13.1714 23.6332 14.0008 23.6332H17.6531C19 23.6332 20.0881 22.4602 20.0881 21.0082C20.0881 19.5562 19 18.3832 17.6531 18.3832H15.34L12.4942 13.5516C11.3832 11.6484 9.44291 10.5 7.35801 10.5H4.86983Z" fill="white"/>
</svg>
